<?xml version="1.0" encoding="iso-8859-1"?>
<!-- Generator: Adobe Illustrator 16.0.0, SVG Export Plug-In . SVG Version: 6.00 Build 0)  -->
<!DOCTYPE svg PUBLIC "-//W3C//DTD SVG 1.1//EN" "http://www.w3.org/Graphics/SVG/1.1/DTD/svg11.dtd">
<svg version="1.1" id="Capa_1" xmlns="http://www.w3.org/2000/svg" xmlns:xlink="http://www.w3.org/1999/xlink" x="0px" y="0px"
	 width="512px" height="512px" viewBox="0 0 512 512" style="enable-background:new 0 0 512 512;" xml:space="preserve">
<g>
	<path d="M432,64h-32v32h16v256H288v128H96V96h16V64H80c-8.801,0-16,7.2-16,16v416c0,8.8,7.199,16,16,16h252l116-116V80
		C448,71.2,440.801,64,432,64z M320,480v-96h96L320,480z M384,64h-64V32c0-17.6-14.4-32-32-32h-64c-17.602,0-32,14.4-32,32v32h-64
		v64h256V64z M288,64h-64V32.057c0.017-0.019,0.036-0.039,0.057-0.057h63.884c0.021,0.018,0.041,0.038,0.059,0.057V64z"/>
</g>
<g>
</g>
<g>
</g>
<g>
</g>
<g>
</g>
<g>
</g>
<g>
</g>
<g>
</g>
<g>
</g>
<g>
</g>
<g>
</g>
<g>
</g>
<g>
</g>
<g>
</g>
<g>
</g>
<g>
</g>
</svg>
